<?xml version="1.0" standalone="no"?>
<!DOCTYPE svg PUBLIC "-//W3C//DTD SVG 20010904//EN"
 "http://www.w3.org/TR/2001/REC-SVG-20010904/DTD/svg10.dtd">
<svg version="1.0" xmlns="http://www.w3.org/2000/svg"
 width="256.000000pt" height="256.000000pt" viewBox="0 0 256.000000 256.000000"
 preserveAspectRatio="xMidYMid meet">

<g transform="translate(0.000000,256.000000) scale(0.100000,-0.100000)"
fill="#000000" stroke="none">
<path d="M1125 2014 c-229 -43 -430 -194 -530 -398 -63 -128 -79 -197 -79
-341 0 -86 5 -138 18 -185 74 -260 260 -452 516 -532 63 -19 96 -23 210 -23
114 0 147 4 210 23 252 80 432 259 510 507 44 143 36 343 -21 488 -59 151
-202 310 -346 385 -151 79 -329 106 -488 76z m-33 -391 c31 -28 22 -58 -33
-105 l-51 -44 38 -29 c49 -36 64 -54 64 -79 0 -27 -29 -56 -56 -56 -24 0 -180
112 -198 142 -18 30 6 65 89 128 84 62 116 72 147 43z m488 -33 c11 -11 20
-30 20 -42 0 -16 -82 -104 -283 -306 -271 -271 -285 -283 -318 -280 -36 3 -61
35 -52 67 2 10 132 145 287 300 199 198 288 281 304 281 12 0 31 -9 42 -20z
m-6 -402 c127 -93 127 -114 3 -206 -88 -64 -118 -74 -149 -45 -31 28 -22 58
33 105 l51 44 -38 29 c-68 49 -80 80 -47 117 27 30 56 21 147 -44z"/>
</g>
</svg>
