<?xml version="1.0" standalone="no"?>
<!DOCTYPE svg PUBLIC "-//W3C//DTD SVG 20010904//EN"
 "http://www.w3.org/TR/2001/REC-SVG-20010904/DTD/svg10.dtd">
<svg version="1.0" xmlns="http://www.w3.org/2000/svg"
 width="512.000000pt" height="512.000000pt" viewBox="0 0 512.000000 512.000000"
 preserveAspectRatio="xMidYMid meet">

<g transform="translate(0.000000,512.000000) scale(0.100000,-0.100000)"
fill="#000000" stroke="none">
<path d="M2385 4053 c-621 -56 -1163 -517 -1315 -1118 -89 -351 -56 -703 96
-1025 131 -276 371 -529 644 -678 354 -193 792 -231 1181 -102 511 169 876
573 1001 1109 26 111 36 402 18 523 -89 614 -533 1105 -1130 1252 -161 39
-338 53 -495 39z m-217 -789 c27 -19 52 -65 52 -96 0 -41 -36 -84 -124 -147
-47 -34 -86 -65 -86 -69 1 -4 41 -36 89 -72 49 -36 96 -77 105 -92 54 -90 -54
-206 -147 -156 -61 32 -339 252 -347 274 -14 37 -12 72 6 102 9 15 90 82 180
150 150 111 169 122 207 122 24 0 53 -7 65 -16z m982 -73 c14 -10 31 -35 38
-56 11 -33 10 -43 -7 -79 -14 -28 -200 -220 -568 -587 -597 -595 -577 -578
-652 -542 -46 23 -75 79 -66 125 6 26 119 146 558 587 304 304 566 559 582
567 35 17 80 11 115 -15z m-167 -703 c46 -24 337 -249 347 -267 14 -26 12 -81
-3 -108 -7 -12 -88 -79 -180 -148 -153 -114 -172 -125 -210 -125 -49 0 -81 19
-102 60 -34 67 -12 108 105 195 49 37 90 70 90 74 -1 3 -41 35 -89 71 -94 68
-121 101 -121 145 0 82 93 141 163 103z"/>
</g>
</svg>
